<svg width="25" height="24" viewBox="0 0 25 24" fill="none" xmlns="http://www.w3.org/2000/svg">
<path d="M19.3333 5V19H5.33331V5H19.3333ZM20.4333 3H4.23331C3.73331 3 3.33331 3.4 3.33331 3.9V20.1C3.33331 20.5 3.73331 21 4.23331 21H20.4333C20.8333 21 21.3333 20.5 21.3333 20.1V3.9C21.3333 3.4 20.8333 3 20.4333 3ZM11.3333 7H17.3333V9H11.3333V7ZM11.3333 11H17.3333V13H11.3333V11ZM11.3333 15H17.3333V17H11.3333V15ZM7.33331 7H9.33331V9H7.33331V7ZM7.33331 11H9.33331V13H7.33331V11ZM7.33331 15H9.33331V17H7.33331V15Z" fill="white" fill-opacity="0.7"/>
</svg>
